<?xml version="1.0" encoding="UTF-8" standalone="no"?>
<svg
   width="25mm"
   height="25mm"
   viewBox="0 0 25 25"
   version="1.1"
   id="svg8"
   inkscape:export-filename="/Users/SteveVissault/Documents/Git/inSilecoBlog/static/img/banner2.png"
   inkscape:export-xdpi="33"
   inkscape:export-ydpi="33"
   inkscape:version="1.2.2 (b0a8486541, 2022-12-01)"
   sodipodi:docname="book.svg"
   xml:space="preserve"
   xmlns:inkscape="http://www.inkscape.org/namespaces/inkscape"
   xmlns:sodipodi="http://sodipodi.sourceforge.net/DTD/sodipodi-0.dtd"
   xmlns="http://www.w3.org/2000/svg"
   xmlns:svg="http://www.w3.org/2000/svg"
   xmlns:rdf="http://www.w3.org/1999/02/22-rdf-syntax-ns#"
   xmlns:cc="http://creativecommons.org/ns#"
   xmlns:dc="http://purl.org/dc/elements/1.1/"><defs
     id="defs2"><clipPath
       clipPathUnits="userSpaceOnUse"
       id="clipPath12601"><rect
         style="opacity:0.304;fill:#ffdd55;fill-opacity:1;stroke:#1a1a1a;stroke-width:0;stroke-linecap:round;stroke-linejoin:round;stroke-miterlimit:4;stroke-dasharray:none;stroke-dashoffset:0;stroke-opacity:1"
         id="rect12603"
         width="1614.308"
         height="453.28912"
         x="-422.0864"
         y="2062.3713" /></clipPath><clipPath
       clipPathUnits="userSpaceOnUse"
       id="clipPath13043"><rect
         style="opacity:0.304;fill:#fcfcfd;fill-opacity:1;stroke:#1a1a1a;stroke-width:0;stroke-linecap:round;stroke-linejoin:round;stroke-miterlimit:4;stroke-dasharray:none;stroke-dashoffset:0;stroke-opacity:1"
         id="rect13045"
         width="1569.4066"
         height="299.34186"
         x="-408.74976"
         y="2133.5461" /></clipPath></defs><sodipodi:namedview
     id="base"
     pagecolor="#ffffff"
     bordercolor="#666666"
     borderopacity="1.0"
     inkscape:pageopacity="0.0"
     inkscape:pageshadow="2"
     inkscape:zoom="1.8407963"
     inkscape:cx="216.75402"
     inkscape:cy="184.15943"
     inkscape:document-units="mm"
     inkscape:current-layer="layer1-9"
     showgrid="false"
     showguides="false"
     inkscape:guide-bbox="true"
     inkscape:window-width="1920"
     inkscape:window-height="1043"
     inkscape:window-x="1920"
     inkscape:window-y="0"
     inkscape:window-maximized="1"
     inkscape:document-rotation="0"
     inkscape:showpageshadow="2"
     inkscape:pagecheckerboard="true"
     inkscape:deskcolor="#d1d1d1" /><metadata
     id="metadata5"><rdf:RDF><cc:Work
         rdf:about=""><dc:format>image/svg+xml</dc:format><dc:type
           rdf:resource="http://purl.org/dc/dcmitype/StillImage" /></cc:Work></rdf:RDF></metadata><g
     inkscape:label="Calque 1"
     inkscape:groupmode="layer"
     id="layer1"><g
       id="layer1-9"
       inkscape:label="Calque 1"
       transform="translate(189.02736,631.50132)"><path
         d="m -183.69759,-615.09394 0.0455,-8.06944 h -0.91096 v 10.26753 c 1.25185,-0.32325 2.50811,-0.52894 3.77319,-0.53776 1.16809,-0.007 2.33619,0.15574 3.50723,0.55245 -0.72731,-0.58919 -1.53837,-1.02264 -2.40378,-1.30474 -1.09023,-0.35557 -2.26862,-0.47313 -3.47638,-0.37027 -0.2733,0.0221 -0.51133,-0.18073 -0.53485,-0.45254 -0.003,-0.0294 -0.003,-0.0573 0,-0.0853 z m 13.36778,-8.49114 c -0.003,-0.0235 -0.006,-0.0485 -0.006,-0.075 0,-0.025 9.3e-4,-0.05 0.006,-0.075 v -1.63388 c -1.14606,-0.10874 -2.32738,0.0176 -3.35885,0.40847 -0.96387,0.36587 -1.79548,0.96681 -2.3362,1.82783 v 9.3066 c 0.84044,-0.56127 1.69999,-1.02264 2.58305,-1.33706 1.00648,-0.35852 2.04087,-0.52897 3.112,-0.44374 z m 0.99178,-0.57009 h 1.34294 c 0.27331,0 0.49517,0.22187 0.49517,0.49516 v 11.41065 c 0,0.2733 -0.22186,0.49516 -0.49517,0.49516 -0.0558,0 -0.11016,-0.008 -0.16015,-0.0264 -1.38115,-0.39526 -2.75348,-0.65826 -4.11259,-0.66707 -1.32531,-0.008 -2.64917,0.2248 -3.97889,0.81106 -0.0823,0.0544 -0.18073,0.0837 -0.28212,0.0823 -0.0999,9.2e-4 -0.19834,-0.028 -0.28209,-0.0823 -1.32826,-0.58773 -2.65359,-0.81988 -3.97889,-0.81106 -1.35912,0.008 -2.72998,0.27181 -4.1126,0.66707 -0.05,0.0176 -0.10435,0.0264 -0.16016,0.0264 -0.27035,9.3e-4 -0.49222,-0.22039 -0.49222,-0.49369 v -11.41212 c 0,-0.27329 0.22187,-0.49516 0.49517,-0.49516 h 1.41199 l 0.008,-1.65444 c 9.2e-4,-0.23803 0.16897,-0.43491 0.39377,-0.48193 v 0 c 1.30327,-0.27183 2.88719,-0.20424 4.27569,0.32765 0.95945,0.36732 1.83076,0.95358 2.46697,1.79991 0.64208,-0.78902 1.50018,-1.35618 2.46551,-1.72203 1.31943,-0.50104 2.84164,-0.62152 4.27422,-0.41141 0.24685,0.0353 0.42315,0.24831 0.42315,0.48928 v 0 1.65297 z m -6.20636,11.19907 c 1.09464,-0.34381 2.1878,-0.48487 3.28098,-0.47899 1.26507,0.007 2.52133,0.21452 3.77317,0.53777 v -10.26606 h -0.84779 v 8.11352 c 0,0.27329 -0.22186,0.49516 -0.49515,0.49516 -0.0397,0 -0.0779,-0.005 -0.11455,-0.0133 -1.08435,-0.17044 -2.1349,-0.0294 -3.16049,0.33647 -0.82574,0.29533 -1.6368,0.73613 -2.43611,1.27535 z m -1.47078,-0.96533 v -9.22579 c -0.51867,-0.91538 -1.35765,-1.52809 -2.30535,-1.89101 -1.07407,-0.4114 -2.28036,-0.50396 -3.3324,-0.3541 l -0.0558,9.81646 c 1.14752,-0.0411 2.27008,0.10437 3.32652,0.44961 0.84043,0.27329 1.6368,0.67441 2.36705,1.20483 z"
         id="path1129"
         style="fill:#ffffff;stroke:#ffffff;stroke-width:0.463468;stroke-dasharray:none" /></g></g></svg>
