<?xml version="1.0" encoding="UTF-8" standalone="no"?>
<svg
   width="25mm"
   height="25mm"
   viewBox="0 0 25 25"
   version="1.1"
   id="svg8"
   inkscape:export-filename="/Users/SteveVissault/Documents/Git/inSilecoBlog/static/img/banner2.png"
   inkscape:export-xdpi="33"
   inkscape:export-ydpi="33"
   inkscape:version="1.2.2 (b0a8486541, 2022-12-01)"
   sodipodi:docname="chip.svg"
   xml:space="preserve"
   xmlns:inkscape="http://www.inkscape.org/namespaces/inkscape"
   xmlns:sodipodi="http://sodipodi.sourceforge.net/DTD/sodipodi-0.dtd"
   xmlns="http://www.w3.org/2000/svg"
   xmlns:svg="http://www.w3.org/2000/svg"
   xmlns:rdf="http://www.w3.org/1999/02/22-rdf-syntax-ns#"
   xmlns:cc="http://creativecommons.org/ns#"
   xmlns:dc="http://purl.org/dc/elements/1.1/"><defs
     id="defs2"><clipPath
       clipPathUnits="userSpaceOnUse"
       id="clipPath12601"><rect
         style="opacity:0.304;fill:#ffdd55;fill-opacity:1;stroke:#1a1a1a;stroke-width:0;stroke-linecap:round;stroke-linejoin:round;stroke-miterlimit:4;stroke-dasharray:none;stroke-dashoffset:0;stroke-opacity:1"
         id="rect12603"
         width="1614.308"
         height="453.28912"
         x="-422.0864"
         y="2062.3713" /></clipPath><clipPath
       clipPathUnits="userSpaceOnUse"
       id="clipPath13043"><rect
         style="opacity:0.304;fill:#fcfcfd;fill-opacity:1;stroke:#1a1a1a;stroke-width:0;stroke-linecap:round;stroke-linejoin:round;stroke-miterlimit:4;stroke-dasharray:none;stroke-dashoffset:0;stroke-opacity:1"
         id="rect13045"
         width="1569.4066"
         height="299.34186"
         x="-408.74976"
         y="2133.5461" /></clipPath></defs><sodipodi:namedview
     id="base"
     pagecolor="#ffffff"
     bordercolor="#666666"
     borderopacity="1.0"
     inkscape:pageopacity="0.0"
     inkscape:pageshadow="2"
     inkscape:zoom="5.6049351"
     inkscape:cx="58.073821"
     inkscape:cy="64.407525"
     inkscape:document-units="mm"
     inkscape:current-layer="g16518"
     showgrid="false"
     showguides="false"
     inkscape:guide-bbox="true"
     inkscape:window-width="1920"
     inkscape:window-height="1011"
     inkscape:window-x="0"
     inkscape:window-y="32"
     inkscape:window-maximized="1"
     inkscape:document-rotation="0"
     inkscape:showpageshadow="2"
     inkscape:pagecheckerboard="true"
     inkscape:deskcolor="#d1d1d1" /><metadata
     id="metadata5"><rdf:RDF><cc:Work
         rdf:about=""><dc:format>image/svg+xml</dc:format><dc:type
           rdf:resource="http://purl.org/dc/dcmitype/StillImage" /></cc:Work></rdf:RDF></metadata><g
     inkscape:label="Calque 1"
     inkscape:groupmode="layer"
     id="layer1"><g
       id="layer1-9"
       inkscape:label="Calque 1"
       transform="translate(189.02736,631.50132)"><g
         id="g2452"
         transform="matrix(1.0759278,0,0,1.0759278,13.506889,43.553099)"><g
           id="g12022"
           transform="matrix(0.9677125,0,0,0.9677125,-5.6231317,-16.7829)"><g
             id="g16518"
             transform="translate(-41.902851,-37.246755)"><path
               style="fill:#ffffff;fill-opacity:1;stroke-width:0.28813219;stroke-dasharray:none;stroke:#ffffff"
               inkscape:connector-curvature="0"
               d="m -125.48306,-583.42486 c 0.25356,0 0.45911,-0.20554 0.45911,-0.45911 0,-0.25357 -0.20555,-0.45911 -0.45911,-0.45911 h -2.25662 v -1.21118 h 2.25662 c 0.25356,0 0.45911,-0.20554 0.45911,-0.45911 0,-0.25357 -0.20555,-0.45911 -0.45911,-0.45911 h -2.25662 v -1.88631 c 0,-0.25356 -0.20555,-0.45911 -0.45912,-0.45911 h -1.8863 v -2.25662 c 0,-0.25357 -0.20554,-0.45911 -0.45911,-0.45911 -0.25357,0 -0.45911,0.20554 -0.45911,0.45911 v 2.25662 h -1.21123 v -2.25662 c 0,-0.25357 -0.20554,-0.45911 -0.45911,-0.45911 -0.25357,0 -0.45911,0.20554 -0.45911,0.45911 v 2.25662 h -1.21113 v -2.25662 c 0,-0.25357 -0.20555,-0.45911 -0.45912,-0.45911 -0.25356,0 -0.45911,0.20554 -0.45911,0.45911 v 2.25662 h -1.21118 v -2.25662 c 0,-0.25357 -0.20554,-0.45911 -0.45911,-0.45911 -0.25357,0 -0.45911,0.20554 -0.45911,0.45911 v 2.25662 h -1.21118 v -2.25662 c 0,-0.25357 -0.20554,-0.45911 -0.45911,-0.45911 -0.25357,0 -0.45911,0.20554 -0.45911,0.45911 v 2.25662 h -1.88631 c -0.25356,0 -0.45911,0.20555 -0.45911,0.45911 v 1.88631 h -2.25662 c -0.25357,0 -0.45911,0.20554 -0.45911,0.45911 0,0.25357 0.20554,0.45911 0.45911,0.45911 h 2.25662 v 1.21118 h -2.25662 c -0.25357,0 -0.45911,0.20554 -0.45911,0.45911 0,0.25357 0.20554,0.45911 0.45911,0.45911 h 2.25662 v 1.21118 h -2.25662 c -0.25357,0 -0.45911,0.20555 -0.45911,0.45911 0,0.25357 0.20554,0.45912 0.45911,0.45912 h 2.25662 v 1.21118 h -2.25662 c -0.25357,0 -0.45911,0.20554 -0.45911,0.45911 0,0.25356 0.20554,0.45911 0.45911,0.45911 h 2.25662 v 1.21118 h -2.25662 c -0.25357,0 -0.45911,0.20554 -0.45911,0.45911 0,0.25357 0.20554,0.45911 0.45911,0.45911 h 2.25662 v 1.8863 c 0,0.25357 0.20555,0.45912 0.45911,0.45912 h 1.88631 v 2.25662 c 0,0.25356 0.20554,0.45911 0.45911,0.45911 0.25357,0 0.45911,-0.20555 0.45911,-0.45911 v -2.25662 h 1.21118 v 2.25662 c 0,0.25356 0.20554,0.45911 0.45911,0.45911 0.25357,0 0.45911,-0.20555 0.45911,-0.45911 v -2.25662 h 1.21118 v 2.25662 c 0,0.25356 0.20555,0.45911 0.45911,0.45911 0.25357,0 0.45912,-0.20555 0.45912,-0.45911 v -2.25662 h 1.21113 v 2.25662 c 0,0.25356 0.20554,0.45911 0.45911,0.45911 0.25357,0 0.45911,-0.20555 0.45911,-0.45911 v -2.25662 h 1.21118 v 2.25662 c 0,0.25356 0.20555,0.45911 0.45911,0.45911 0.25357,0 0.45911,-0.20555 0.45911,-0.45911 v -2.25662 h 1.88631 c 0.25357,0 0.45911,-0.20555 0.45911,-0.45912 v -1.8863 h 2.25667 c 0.25356,0 0.45911,-0.20554 0.45911,-0.45911 0,-0.25357 -0.20555,-0.45911 -0.45911,-0.45911 h -2.25662 v -1.21118 h 2.25662 c 0.25356,0 0.45911,-0.20555 0.45911,-0.45911 0,-0.25357 -0.20555,-0.45911 -0.45911,-0.45911 h -2.25662 v -1.21118 h 2.25662 c 0.25356,0 0.45911,-0.20555 0.45911,-0.45912 0,-0.25356 -0.20555,-0.45911 -0.45911,-0.45911 h -2.25662 v -1.21118 z m -3.17485,1.21118 h -0.40498 c -0.25357,0 -0.45911,0.20555 -0.45911,0.45911 0,0.25357 0.20554,0.45912 0.45911,0.45912 h 0.40498 v 1.21118 h -0.40498 c -0.25357,0 -0.45911,0.20554 -0.45911,0.45911 0,0.25356 0.20554,0.45911 0.45911,0.45911 h 0.40498 v 1.21118 h -0.40498 c -0.25357,0 -0.45911,0.20554 -0.45911,0.45911 0,0.25357 0.20554,0.45911 0.45911,0.45911 h 0.40498 v 1.42719 h -1.42719 v -0.40498 c 0,-0.25357 -0.20554,-0.45911 -0.45911,-0.45911 -0.25357,0 -0.45911,0.20554 -0.45911,0.45911 v 0.40498 h -1.21123 v -0.40498 c 0,-0.25357 -0.20554,-0.45911 -0.45911,-0.45911 -0.25357,0 -0.45911,0.20554 -0.45911,0.45911 v 0.40498 h -1.21113 v -0.40498 c 0,-0.25357 -0.20555,-0.45911 -0.45912,-0.45911 -0.25356,0 -0.45911,0.20554 -0.45911,0.45911 v 0.40498 h -1.21118 v -0.40498 c 0,-0.25357 -0.20554,-0.45911 -0.45911,-0.45911 -0.25357,0 -0.45911,0.20554 -0.45911,0.45911 v 0.40498 h -1.21118 v -0.40498 c 0,-0.25357 -0.20554,-0.45911 -0.45911,-0.45911 -0.25357,0 -0.45911,0.20554 -0.45911,0.45911 v 0.40498 h -1.42719 v -1.42719 h 0.40498 c 0.25356,0 0.45911,-0.20554 0.45911,-0.45911 0,-0.25357 -0.20555,-0.45911 -0.45911,-0.45911 h -0.40498 v -1.21118 h 0.40498 c 0.25356,0 0.45911,-0.20555 0.45911,-0.45911 0,-0.25357 -0.20555,-0.45911 -0.45911,-0.45911 h -0.40498 v -1.21118 h 0.40498 c 0.25356,0 0.45911,-0.20555 0.45911,-0.45912 0,-0.25356 -0.20555,-0.45911 -0.45911,-0.45911 h -0.40498 v -1.21118 h 0.40498 c 0.25356,0 0.45911,-0.20554 0.45911,-0.45911 0,-0.25357 -0.20555,-0.45911 -0.45911,-0.45911 h -0.40498 v -1.21118 h 0.40498 c 0.25356,0 0.45911,-0.20554 0.45911,-0.45911 0,-0.25357 -0.20555,-0.45911 -0.45911,-0.45911 h -0.40498 v -1.42719 h 1.42719 v 0.40498 c 0,0.25356 0.20554,0.45911 0.45911,0.45911 0.25357,0 0.45911,-0.20555 0.45911,-0.45911 v -0.40498 h 1.21118 v 0.40498 c 0,0.25356 0.20554,0.45911 0.45911,0.45911 0.25357,0 0.45911,-0.20555 0.45911,-0.45911 v -0.40498 h 1.21118 v 0.40498 c 0,0.25356 0.20555,0.45911 0.45911,0.45911 0.25357,0 0.45912,-0.20555 0.45912,-0.45911 v -0.40498 h 1.21113 v 0.40498 c 0,0.25356 0.20554,0.45911 0.45911,0.45911 0.25357,0 0.45911,-0.20555 0.45911,-0.45911 v -0.40498 h 1.21118 v 0.40498 c 0,0.25356 0.20555,0.45911 0.45911,0.45911 0.25357,0 0.45911,-0.20555 0.45911,-0.45911 v -0.40498 h 1.4272 v 1.42719 h -0.40498 c -0.25357,0 -0.45912,0.20554 -0.45912,0.45911 0,0.25357 0.20555,0.45911 0.45912,0.45911 h 0.40498 v 1.21118 h -0.40498 c -0.25357,0 -0.45912,0.20554 -0.45912,0.45911 0,0.25357 0.20555,0.45911 0.45912,0.45911 h 0.40498 v 1.21118 z"
               id="path20155-4-9-5-8-6-8-7" /><path
               style="fill:#ffffff;fill-opacity:1;stroke-width:0.28813219;stroke-dasharray:none;stroke:#ffffff"
               inkscape:connector-curvature="0"
               d="m -132.33419,-584.68255 h -4.9377 c -0.25356,0 -0.45911,0.20555 -0.45911,0.45911 v 4.93774 c 0,0.25357 0.20555,0.45911 0.45911,0.45911 h 4.9377 c 0.25356,0 0.45911,-0.20554 0.45911,-0.45911 v -4.93774 c 0,-0.25356 -0.20555,-0.45911 -0.45911,-0.45911 z m -0.45911,4.93774 h -4.01947 v -4.01951 h 4.01947 z"
               id="path20157-6-5-0-3-5-5-5" /></g></g></g></g></g></svg>
