<?xml version="1.0" encoding="UTF-8" standalone="no"?>
<svg
   version="1.1"
   id="Layer_1"
   x="0px"
   y="0px"
   viewBox="0 0 122.88 105.21"
   style="enable-background:new 0 0 122.88 105.21"
   xml:space="preserve"
   sodipodi:docname="robot.svg"
   inkscape:version="1.4.2 (ebf0e940d0, 2025-05-08)"
   xmlns:inkscape="http://www.inkscape.org/namespaces/inkscape"
   xmlns:sodipodi="http://sodipodi.sourceforge.net/DTD/sodipodi-0.dtd"
   xmlns="http://www.w3.org/2000/svg"
   xmlns:svg="http://www.w3.org/2000/svg"><defs
     id="defs1" /><sodipodi:namedview
     id="namedview1"
     pagecolor="#ffffff"
     bordercolor="#4a4b00"
     borderopacity="0.31372549"
     inkscape:showpageshadow="2"
     inkscape:pageopacity="0.0"
     inkscape:pagecheckerboard="true"
     inkscape:deskcolor="#d1d1d1"
     inkscape:zoom="4.0829519"
     inkscape:cx="25.349307"
     inkscape:cy="51.065995"
     inkscape:window-width="2560"
     inkscape:window-height="1373"
     inkscape:window-x="0"
     inkscape:window-y="0"
     inkscape:window-maximized="1"
     inkscape:current-layer="g1" /><style
     type="text/css"
     id="style1">.st0{fill-rule:evenodd;clip-rule:evenodd;}</style><g
     id="g1"
     transform="matrix(0.81114246,0,0,0.81114246,11.603406,9.9348504)"
     style="fill:#ffffff"><path
       class="st0"
       d="m 63.800753,12.850443 v 11.622159 h 32.027843 c 5.189824,0 9.433444,4.243618 9.433444,9.433447 v 11.918448 h 12.82643 c 1.13737,0 2.07402,0.927097 2.07402,2.074021 v 24.161858 c 0,1.137366 -0.9271,2.07402 -2.07402,2.07402 h -12.82643 v 11.918448 c 0,5.189829 -4.24362,9.43345 -9.433444,9.43345 H 26.057408 c -5.189829,0 -9.433447,-4.243621 -9.433447,-9.43345 V 74.134396 H 4.7915319 c -1.146924,0 -2.07402,-0.927097 -2.07402,-2.064463 V 47.898518 c 0,-1.137366 0.927096,-2.074021 2.07402,-2.074021 H 16.623961 v -11.90889 c 0,-5.189829 4.243618,-9.433447 9.433447,-9.433447 H 58.085251 V 12.850443 c -3.679714,-1.20427 -6.327196,-4.6545991 -6.327196,-8.7357353 0,-5.07513723 4.10981,-9.1849475 9.184947,-9.1849475 5.075137,0 9.184947,4.10981027 9.184947,9.1849475 0,4.0811362 -2.65704,7.5314653 -6.327196,8.7357353 z m -21.86801,58.292394 h 39.004961 c 1.901982,0 3.459886,1.557904 3.459886,3.459886 v 1.624809 c 0,1.901981 -1.557904,3.459886 -3.459886,3.459886 H 41.932743 c -1.901982,0 -3.459887,-1.557905 -3.459887,-3.459886 v -1.624809 c 0,-1.911539 1.557905,-3.459886 3.459887,-3.459886 z M 77.936587,40.414841 c 5.132484,0 9.299639,4.157598 9.299639,9.299639 0,5.132483 -4.157598,9.290082 -9.299639,9.290082 -5.142041,0 -9.290081,-4.157599 -9.290081,-9.290082 -0.0096,-5.142041 4.157598,-9.299639 9.290081,-9.299639 z m -32.99317,0 c 5.132484,0 9.290082,4.157598 9.290082,9.299639 0,5.132483 -4.157598,9.290082 -9.290082,9.290082 -5.132483,0 -9.290081,-4.157599 -9.290081,-9.290082 0,-5.142041 4.157598,-9.299639 9.290081,-9.299639 z"
       id="path1"
       style="fill:#ffffff;stroke-width:0.95577" /></g></svg>
