<?xml version="1.0" encoding="UTF-8"?>
<svg xmlns="http://www.w3.org/2000/svg" width="40mm" height="40mm" viewBox="0 0 47 47">
<defs>
  <clipPath id="clipCircle"><circle cx="23.5" cy="23.5" r="23.5"/></clipPath>
</defs>
<circle cx="23.5" cy="23.5" r="23.5" fill="#ffffff" stroke="#37abc8"/>
<g clip-path="url(#clipCircle)">
  <rect x="4" y="4" width="39" height="39" fill="#ffffff"/>
  <rect x="16" y="7" width="1" height="1" fill="#37abc8"/>
  <rect x="17" y="7" width="1" height="1" fill="#37abc8"/>
  <rect x="18" y="7" width="1" height="1" fill="#37abc8"/>
  <rect x="21" y="7" width="1" height="1" fill="#37abc8"/>
  <rect x="26" y="7" width="1" height="1" fill="#37abc8"/>
  <rect x="29" y="7" width="1" height="1" fill="#37abc8"/>
  <rect x="31" y="7" width="1" height="1" fill="#37abc8"/>
  <rect x="19" y="8" width="1" height="1" fill="#37abc8"/>
  <rect x="21" y="8" width="1" height="1" fill="#37abc8"/>
  <rect x="24" y="8" width="1" height="1" fill="#37abc8"/>
  <rect x="26" y="8" width="1" height="1" fill="#37abc8"/>
  <rect x="15" y="9" width="1" height="1" fill="#37abc8"/>
  <rect x="17" y="9" width="1" height="1" fill="#37abc8"/>
  <rect x="20" y="9" width="1" height="1" fill="#37abc8"/>
  <rect x="22" y="9" width="1" height="1" fill="#37abc8"/>
  <rect x="26" y="9" width="1" height="1" fill="#37abc8"/>
  <rect x="28" y="9" width="1" height="1" fill="#37abc8"/>
  <rect x="30" y="9" width="1" height="1" fill="#37abc8"/>
  <rect x="15" y="10" width="1" height="1" fill="#37abc8"/>
  <rect x="16" y="10" width="1" height="1" fill="#37abc8"/>
  <rect x="17" y="10" width="1" height="1" fill="#37abc8"/>
  <rect x="19" y="10" width="1" height="1" fill="#37abc8"/>
  <rect x="21" y="10" width="1" height="1" fill="#37abc8"/>
  <rect x="24" y="10" width="1" height="1" fill="#37abc8"/>
  <rect x="25" y="10" width="1" height="1" fill="#37abc8"/>
  <rect x="27" y="10" width="1" height="1" fill="#37abc8"/>
  <rect x="28" y="10" width="1" height="1" fill="#37abc8"/>
  <rect x="30" y="10" width="1" height="1" fill="#37abc8"/>
  <rect x="16" y="11" width="1" height="1" fill="#37abc8"/>
  <rect x="20" y="11" width="1" height="1" fill="#37abc8"/>
  <rect x="24" y="11" width="1" height="1" fill="#37abc8"/>
  <rect x="25" y="11" width="1" height="1" fill="#37abc8"/>
  <rect x="26" y="11" width="1" height="1" fill="#37abc8"/>
  <rect x="27" y="11" width="1" height="1" fill="#37abc8"/>
  <rect x="30" y="11" width="1" height="1" fill="#37abc8"/>
  <rect x="31" y="11" width="1" height="1" fill="#37abc8"/>
  <rect x="16" y="12" width="1" height="1" fill="#37abc8"/>
  <rect x="17" y="12" width="1" height="1" fill="#37abc8"/>
  <rect x="18" y="12" width="1" height="1" fill="#37abc8"/>
  <rect x="19" y="12" width="1" height="1" fill="#37abc8"/>
  <rect x="20" y="12" width="1" height="1" fill="#37abc8"/>
  <rect x="21" y="12" width="1" height="1" fill="#37abc8"/>
  <rect x="22" y="12" width="1" height="1" fill="#37abc8"/>
  <rect x="25" y="12" width="1" height="1" fill="#37abc8"/>
  <rect x="26" y="12" width="1" height="1" fill="#37abc8"/>
  <rect x="29" y="12" width="1" height="1" fill="#37abc8"/>
  <rect x="30" y="12" width="1" height="1" fill="#37abc8"/>
  <rect x="15" y="13" width="1" height="1" fill="#37abc8"/>
  <rect x="17" y="13" width="1" height="1" fill="#37abc8"/>
  <rect x="19" y="13" width="1" height="1" fill="#37abc8"/>
  <rect x="21" y="13" width="1" height="1" fill="#37abc8"/>
  <rect x="23" y="13" width="1" height="1" fill="#37abc8"/>
  <rect x="25" y="13" width="1" height="1" fill="#37abc8"/>
  <rect x="27" y="13" width="1" height="1" fill="#37abc8"/>
  <rect x="29" y="13" width="1" height="1" fill="#37abc8"/>
  <rect x="31" y="13" width="1" height="1" fill="#37abc8"/>
  <rect x="21" y="14" width="1" height="1" fill="#37abc8"/>
  <rect x="24" y="14" width="1" height="1" fill="#37abc8"/>
  <rect x="25" y="14" width="1" height="1" fill="#37abc8"/>
  <rect x="27" y="14" width="1" height="1" fill="#37abc8"/>
  <rect x="29" y="14" width="1" height="1" fill="#37abc8"/>
  <rect x="31" y="14" width="1" height="1" fill="#37abc8"/>
  <rect x="10" y="15" width="1" height="1" fill="#37abc8"/>
  <rect x="11" y="15" width="1" height="1" fill="#37abc8"/>
  <rect x="13" y="15" width="1" height="1" fill="#37abc8"/>
  <rect x="14" y="15" width="1" height="1" fill="#37abc8"/>
  <rect x="16" y="15" width="1" height="1" fill="#37abc8"/>
  <rect x="17" y="15" width="1" height="1" fill="#37abc8"/>
  <rect x="18" y="15" width="1" height="1" fill="#37abc8"/>
  <rect x="19" y="15" width="1" height="1" fill="#37abc8"/>
  <rect x="20" y="15" width="1" height="1" fill="#37abc8"/>
  <rect x="31" y="15" width="1" height="1" fill="#37abc8"/>
  <rect x="36" y="15" width="1" height="1" fill="#37abc8"/>
  <rect x="37" y="15" width="1" height="1" fill="#37abc8"/>
  <rect x="7" y="16" width="1" height="1" fill="#37abc8"/>
  <rect x="8" y="16" width="1" height="1" fill="#37abc8"/>
  <rect x="9" y="16" width="1" height="1" fill="#37abc8"/>
  <rect x="10" y="16" width="1" height="1" fill="#37abc8"/>
  <rect x="14" y="16" width="1" height="1" fill="#37abc8"/>
  <rect x="17" y="16" width="1" height="1" fill="#37abc8"/>
  <rect x="19" y="16" width="1" height="1" fill="#37abc8"/>
  <rect x="20" y="16" width="1" height="1" fill="#37abc8"/>
  <rect x="21" y="16" width="1" height="1" fill="#37abc8"/>
  <rect x="25" y="16" width="1" height="1" fill="#37abc8"/>
  <rect x="26" y="16" width="1" height="1" fill="#37abc8"/>
  <rect x="28" y="16" width="1" height="1" fill="#37abc8"/>
  <rect x="29" y="16" width="1" height="1" fill="#37abc8"/>
  <rect x="30" y="16" width="1" height="1" fill="#37abc8"/>
  <rect x="32" y="16" width="1" height="1" fill="#37abc8"/>
  <rect x="34" y="16" width="1" height="1" fill="#37abc8"/>
  <rect x="35" y="16" width="1" height="1" fill="#37abc8"/>
  <rect x="10" y="17" width="1" height="1" fill="#37abc8"/>
  <rect x="13" y="17" width="1" height="1" fill="#37abc8"/>
  <rect x="14" y="17" width="1" height="1" fill="#37abc8"/>
  <rect x="16" y="17" width="1" height="1" fill="#37abc8"/>
  <rect x="17" y="17" width="1" height="1" fill="#37abc8"/>
  <rect x="18" y="17" width="1" height="1" fill="#37abc8"/>
  <rect x="19" y="17" width="1" height="1" fill="#37abc8"/>
  <rect x="20" y="17" width="1" height="1" fill="#37abc8"/>
  <rect x="24" y="17" width="1" height="1" fill="#37abc8"/>
  <rect x="29" y="17" width="1" height="1" fill="#37abc8"/>
  <rect x="30" y="17" width="1" height="1" fill="#37abc8"/>
  <rect x="31" y="17" width="1" height="1" fill="#37abc8"/>
  <rect x="32" y="17" width="1" height="1" fill="#37abc8"/>
  <rect x="33" y="17" width="1" height="1" fill="#37abc8"/>
  <rect x="34" y="17" width="1" height="1" fill="#37abc8"/>
  <rect x="37" y="17" width="1" height="1" fill="#37abc8"/>
  <rect x="38" y="17" width="1" height="1" fill="#37abc8"/>
  <rect x="39" y="17" width="1" height="1" fill="#37abc8"/>
  <rect x="10" y="18" width="1" height="1" fill="#37abc8"/>
  <rect x="14" y="18" width="1" height="1" fill="#37abc8"/>
  <rect x="16" y="18" width="1" height="1" fill="#37abc8"/>
  <rect x="19" y="18" width="1" height="1" fill="#37abc8"/>
  <rect x="20" y="18" width="1" height="1" fill="#37abc8"/>
  <rect x="25" y="18" width="1" height="1" fill="#37abc8"/>
  <rect x="26" y="18" width="1" height="1" fill="#37abc8"/>
  <rect x="27" y="18" width="1" height="1" fill="#37abc8"/>
  <rect x="28" y="18" width="1" height="1" fill="#37abc8"/>
  <rect x="29" y="18" width="1" height="1" fill="#37abc8"/>
  <rect x="34" y="18" width="1" height="1" fill="#37abc8"/>
  <rect x="35" y="18" width="1" height="1" fill="#37abc8"/>
  <rect x="37" y="18" width="1" height="1" fill="#37abc8"/>
  <rect x="39" y="18" width="1" height="1" fill="#37abc8"/>
  <rect x="7" y="19" width="1" height="1" fill="#37abc8"/>
  <rect x="8" y="19" width="1" height="1" fill="#37abc8"/>
  <rect x="13" y="19" width="1" height="1" fill="#37abc8"/>
  <rect x="14" y="19" width="1" height="1" fill="#37abc8"/>
  <rect x="15" y="19" width="1" height="1" fill="#37abc8"/>
  <rect x="16" y="19" width="1" height="1" fill="#37abc8"/>
  <rect x="18" y="19" width="1" height="1" fill="#37abc8"/>
  <rect x="19" y="19" width="1" height="1" fill="#37abc8"/>
  <rect x="21" y="19" width="1" height="1" fill="#37abc8"/>
  <rect x="23" y="19" width="1" height="1" fill="#37abc8"/>
  <rect x="25" y="19" width="1" height="1" fill="#37abc8"/>
  <rect x="27" y="19" width="1" height="1" fill="#37abc8"/>
  <rect x="28" y="19" width="1" height="1" fill="#37abc8"/>
  <rect x="31" y="19" width="1" height="1" fill="#37abc8"/>
  <rect x="33" y="19" width="1" height="1" fill="#37abc8"/>
  <rect x="34" y="19" width="1" height="1" fill="#37abc8"/>
  <rect x="35" y="19" width="1" height="1" fill="#37abc8"/>
  <rect x="36" y="19" width="1" height="1" fill="#37abc8"/>
  <rect x="39" y="19" width="1" height="1" fill="#37abc8"/>
  <rect x="10" y="20" width="1" height="1" fill="#37abc8"/>
  <rect x="11" y="20" width="1" height="1" fill="#37abc8"/>
  <rect x="16" y="20" width="1" height="1" fill="#37abc8"/>
  <rect x="17" y="20" width="1" height="1" fill="#37abc8"/>
  <rect x="19" y="20" width="1" height="1" fill="#37abc8"/>
  <rect x="20" y="20" width="1" height="1" fill="#37abc8"/>
  <rect x="23" y="20" width="1" height="1" fill="#37abc8"/>
  <rect x="25" y="20" width="1" height="1" fill="#37abc8"/>
  <rect x="27" y="20" width="1" height="1" fill="#37abc8"/>
  <rect x="28" y="20" width="1" height="1" fill="#37abc8"/>
  <rect x="30" y="20" width="1" height="1" fill="#37abc8"/>
  <rect x="34" y="20" width="1" height="1" fill="#37abc8"/>
  <rect x="35" y="20" width="1" height="1" fill="#37abc8"/>
  <rect x="36" y="20" width="1" height="1" fill="#37abc8"/>
  <rect x="38" y="20" width="1" height="1" fill="#37abc8"/>
  <rect x="8" y="21" width="1" height="1" fill="#37abc8"/>
  <rect x="10" y="21" width="1" height="1" fill="#37abc8"/>
  <rect x="13" y="21" width="1" height="1" fill="#37abc8"/>
  <rect x="18" y="21" width="1" height="1" fill="#37abc8"/>
  <rect x="19" y="21" width="1" height="1" fill="#37abc8"/>
  <rect x="20" y="21" width="1" height="1" fill="#37abc8"/>
  <rect x="21" y="21" width="1" height="1" fill="#37abc8"/>
  <rect x="22" y="21" width="1" height="1" fill="#37abc8"/>
  <rect x="23" y="21" width="1" height="1" fill="#37abc8"/>
  <rect x="25" y="21" width="1" height="1" fill="#37abc8"/>
  <rect x="26" y="21" width="1" height="1" fill="#37abc8"/>
  <rect x="31" y="21" width="1" height="1" fill="#37abc8"/>
  <rect x="32" y="21" width="1" height="1" fill="#37abc8"/>
  <rect x="34" y="21" width="1" height="1" fill="#37abc8"/>
  <rect x="7" y="22" width="1" height="1" fill="#37abc8"/>
  <rect x="8" y="22" width="1" height="1" fill="#37abc8"/>
  <rect x="10" y="22" width="1" height="1" fill="#37abc8"/>
  <rect x="12" y="22" width="1" height="1" fill="#37abc8"/>
  <rect x="14" y="22" width="1" height="1" fill="#37abc8"/>
  <rect x="16" y="22" width="1" height="1" fill="#37abc8"/>
  <rect x="19" y="22" width="1" height="1" fill="#37abc8"/>
  <rect x="20" y="22" width="1" height="1" fill="#37abc8"/>
  <rect x="21" y="22" width="1" height="1" fill="#37abc8"/>
  <rect x="22" y="22" width="1" height="1" fill="#37abc8"/>
  <rect x="23" y="22" width="1" height="1" fill="#37abc8"/>
  <rect x="24" y="22" width="1" height="1" fill="#37abc8"/>
  <rect x="27" y="22" width="1" height="1" fill="#37abc8"/>
  <rect x="30" y="22" width="1" height="1" fill="#37abc8"/>
  <rect x="32" y="22" width="1" height="1" fill="#37abc8"/>
  <rect x="34" y="22" width="1" height="1" fill="#37abc8"/>
  <rect x="36" y="22" width="1" height="1" fill="#37abc8"/>
  <rect x="7" y="23" width="1" height="1" fill="#37abc8"/>
  <rect x="8" y="23" width="1" height="1" fill="#37abc8"/>
  <rect x="10" y="23" width="1" height="1" fill="#37abc8"/>
  <rect x="13" y="23" width="1" height="1" fill="#37abc8"/>
  <rect x="14" y="23" width="1" height="1" fill="#37abc8"/>
  <rect x="15" y="23" width="1" height="1" fill="#37abc8"/>
  <rect x="16" y="23" width="1" height="1" fill="#37abc8"/>
  <rect x="19" y="23" width="1" height="1" fill="#37abc8"/>
  <rect x="21" y="23" width="1" height="1" fill="#37abc8"/>
  <rect x="22" y="23" width="1" height="1" fill="#37abc8"/>
  <rect x="24" y="23" width="1" height="1" fill="#37abc8"/>
  <rect x="25" y="23" width="1" height="1" fill="#37abc8"/>
  <rect x="27" y="23" width="1" height="1" fill="#37abc8"/>
  <rect x="29" y="23" width="1" height="1" fill="#37abc8"/>
  <rect x="31" y="23" width="1" height="1" fill="#37abc8"/>
  <rect x="32" y="23" width="1" height="1" fill="#37abc8"/>
  <rect x="33" y="23" width="1" height="1" fill="#37abc8"/>
  <rect x="34" y="23" width="1" height="1" fill="#37abc8"/>
  <rect x="35" y="23" width="1" height="1" fill="#37abc8"/>
  <rect x="36" y="23" width="1" height="1" fill="#37abc8"/>
  <rect x="37" y="23" width="1" height="1" fill="#37abc8"/>
  <rect x="8" y="24" width="1" height="1" fill="#37abc8"/>
  <rect x="9" y="24" width="1" height="1" fill="#37abc8"/>
  <rect x="16" y="24" width="1" height="1" fill="#37abc8"/>
  <rect x="18" y="24" width="1" height="1" fill="#37abc8"/>
  <rect x="19" y="24" width="1" height="1" fill="#37abc8"/>
  <rect x="22" y="24" width="1" height="1" fill="#37abc8"/>
  <rect x="23" y="24" width="1" height="1" fill="#37abc8"/>
  <rect x="25" y="24" width="1" height="1" fill="#37abc8"/>
  <rect x="27" y="24" width="1" height="1" fill="#37abc8"/>
  <rect x="28" y="24" width="1" height="1" fill="#37abc8"/>
  <rect x="29" y="24" width="1" height="1" fill="#37abc8"/>
  <rect x="31" y="24" width="1" height="1" fill="#37abc8"/>
  <rect x="33" y="24" width="1" height="1" fill="#37abc8"/>
  <rect x="34" y="24" width="1" height="1" fill="#37abc8"/>
  <rect x="35" y="24" width="1" height="1" fill="#37abc8"/>
  <rect x="36" y="24" width="1" height="1" fill="#37abc8"/>
  <rect x="9" y="25" width="1" height="1" fill="#37abc8"/>
  <rect x="10" y="25" width="1" height="1" fill="#37abc8"/>
  <rect x="11" y="25" width="1" height="1" fill="#37abc8"/>
  <rect x="13" y="25" width="1" height="1" fill="#37abc8"/>
  <rect x="14" y="25" width="1" height="1" fill="#37abc8"/>
  <rect x="15" y="25" width="1" height="1" fill="#37abc8"/>
  <rect x="17" y="25" width="1" height="1" fill="#37abc8"/>
  <rect x="20" y="25" width="1" height="1" fill="#37abc8"/>
  <rect x="21" y="25" width="1" height="1" fill="#37abc8"/>
  <rect x="22" y="25" width="1" height="1" fill="#37abc8"/>
  <rect x="24" y="25" width="1" height="1" fill="#37abc8"/>
  <rect x="25" y="25" width="1" height="1" fill="#37abc8"/>
  <rect x="26" y="25" width="1" height="1" fill="#37abc8"/>
  <rect x="30" y="25" width="1" height="1" fill="#37abc8"/>
  <rect x="31" y="25" width="1" height="1" fill="#37abc8"/>
  <rect x="32" y="25" width="1" height="1" fill="#37abc8"/>
  <rect x="33" y="25" width="1" height="1" fill="#37abc8"/>
  <rect x="35" y="25" width="1" height="1" fill="#37abc8"/>
  <rect x="36" y="25" width="1" height="1" fill="#37abc8"/>
  <rect x="37" y="25" width="1" height="1" fill="#37abc8"/>
  <rect x="38" y="25" width="1" height="1" fill="#37abc8"/>
  <rect x="39" y="25" width="1" height="1" fill="#37abc8"/>
  <rect x="7" y="26" width="1" height="1" fill="#37abc8"/>
  <rect x="8" y="26" width="1" height="1" fill="#37abc8"/>
  <rect x="9" y="26" width="1" height="1" fill="#37abc8"/>
  <rect x="10" y="26" width="1" height="1" fill="#37abc8"/>
  <rect x="12" y="26" width="1" height="1" fill="#37abc8"/>
  <rect x="14" y="26" width="1" height="1" fill="#37abc8"/>
  <rect x="16" y="26" width="1" height="1" fill="#37abc8"/>
  <rect x="18" y="26" width="1" height="1" fill="#37abc8"/>
  <rect x="21" y="26" width="1" height="1" fill="#37abc8"/>
  <rect x="22" y="26" width="1" height="1" fill="#37abc8"/>
  <rect x="23" y="26" width="1" height="1" fill="#37abc8"/>
  <rect x="25" y="26" width="1" height="1" fill="#37abc8"/>
  <rect x="26" y="26" width="1" height="1" fill="#37abc8"/>
  <rect x="30" y="26" width="1" height="1" fill="#37abc8"/>
  <rect x="31" y="26" width="1" height="1" fill="#37abc8"/>
  <rect x="33" y="26" width="1" height="1" fill="#37abc8"/>
  <rect x="34" y="26" width="1" height="1" fill="#37abc8"/>
  <rect x="36" y="26" width="1" height="1" fill="#37abc8"/>
  <rect x="37" y="26" width="1" height="1" fill="#37abc8"/>
  <rect x="8" y="27" width="1" height="1" fill="#37abc8"/>
  <rect x="9" y="27" width="1" height="1" fill="#37abc8"/>
  <rect x="13" y="27" width="1" height="1" fill="#37abc8"/>
  <rect x="16" y="27" width="1" height="1" fill="#37abc8"/>
  <rect x="23" y="27" width="1" height="1" fill="#37abc8"/>
  <rect x="25" y="27" width="1" height="1" fill="#37abc8"/>
  <rect x="27" y="27" width="1" height="1" fill="#37abc8"/>
  <rect x="30" y="27" width="1" height="1" fill="#37abc8"/>
  <rect x="31" y="27" width="1" height="1" fill="#37abc8"/>
  <rect x="32" y="27" width="1" height="1" fill="#37abc8"/>
  <rect x="36" y="27" width="1" height="1" fill="#37abc8"/>
  <rect x="39" y="27" width="1" height="1" fill="#37abc8"/>
  <rect x="7" y="28" width="1" height="1" fill="#37abc8"/>
  <rect x="9" y="28" width="1" height="1" fill="#37abc8"/>
  <rect x="10" y="28" width="1" height="1" fill="#37abc8"/>
  <rect x="11" y="28" width="1" height="1" fill="#37abc8"/>
  <rect x="16" y="28" width="1" height="1" fill="#37abc8"/>
  <rect x="20" y="28" width="1" height="1" fill="#37abc8"/>
  <rect x="21" y="28" width="1" height="1" fill="#37abc8"/>
  <rect x="23" y="28" width="1" height="1" fill="#37abc8"/>
  <rect x="25" y="28" width="1" height="1" fill="#37abc8"/>
  <rect x="26" y="28" width="1" height="1" fill="#37abc8"/>
  <rect x="28" y="28" width="1" height="1" fill="#37abc8"/>
  <rect x="32" y="28" width="1" height="1" fill="#37abc8"/>
  <rect x="33" y="28" width="1" height="1" fill="#37abc8"/>
  <rect x="34" y="28" width="1" height="1" fill="#37abc8"/>
  <rect x="35" y="28" width="1" height="1" fill="#37abc8"/>
  <rect x="36" y="28" width="1" height="1" fill="#37abc8"/>
  <rect x="37" y="28" width="1" height="1" fill="#37abc8"/>
  <rect x="7" y="29" width="1" height="1" fill="#37abc8"/>
  <rect x="9" y="29" width="1" height="1" fill="#37abc8"/>
  <rect x="10" y="29" width="1" height="1" fill="#37abc8"/>
  <rect x="11" y="29" width="1" height="1" fill="#37abc8"/>
  <rect x="13" y="29" width="1" height="1" fill="#37abc8"/>
  <rect x="14" y="29" width="1" height="1" fill="#37abc8"/>
  <rect x="15" y="29" width="1" height="1" fill="#37abc8"/>
  <rect x="16" y="29" width="1" height="1" fill="#37abc8"/>
  <rect x="17" y="29" width="1" height="1" fill="#37abc8"/>
  <rect x="18" y="29" width="1" height="1" fill="#37abc8"/>
  <rect x="20" y="29" width="1" height="1" fill="#37abc8"/>
  <rect x="22" y="29" width="1" height="1" fill="#37abc8"/>
  <rect x="23" y="29" width="1" height="1" fill="#37abc8"/>
  <rect x="24" y="29" width="1" height="1" fill="#37abc8"/>
  <rect x="25" y="29" width="1" height="1" fill="#37abc8"/>
  <rect x="26" y="29" width="1" height="1" fill="#37abc8"/>
  <rect x="29" y="29" width="1" height="1" fill="#37abc8"/>
  <rect x="31" y="29" width="1" height="1" fill="#37abc8"/>
  <rect x="33" y="29" width="1" height="1" fill="#37abc8"/>
  <rect x="34" y="29" width="1" height="1" fill="#37abc8"/>
  <rect x="35" y="29" width="1" height="1" fill="#37abc8"/>
  <rect x="37" y="29" width="1" height="1" fill="#37abc8"/>
  <rect x="38" y="29" width="1" height="1" fill="#37abc8"/>
  <rect x="39" y="29" width="1" height="1" fill="#37abc8"/>
  <rect x="7" y="30" width="1" height="1" fill="#37abc8"/>
  <rect x="10" y="30" width="1" height="1" fill="#37abc8"/>
  <rect x="11" y="30" width="1" height="1" fill="#37abc8"/>
  <rect x="14" y="30" width="1" height="1" fill="#37abc8"/>
  <rect x="15" y="30" width="1" height="1" fill="#37abc8"/>
  <rect x="16" y="30" width="1" height="1" fill="#37abc8"/>
  <rect x="18" y="30" width="1" height="1" fill="#37abc8"/>
  <rect x="20" y="30" width="1" height="1" fill="#37abc8"/>
  <rect x="26" y="30" width="1" height="1" fill="#37abc8"/>
  <rect x="34" y="30" width="1" height="1" fill="#37abc8"/>
  <rect x="37" y="30" width="1" height="1" fill="#37abc8"/>
  <rect x="38" y="30" width="1" height="1" fill="#37abc8"/>
  <rect x="39" y="30" width="1" height="1" fill="#37abc8"/>
  <rect x="7" y="31" width="1" height="1" fill="#37abc8"/>
  <rect x="8" y="31" width="1" height="1" fill="#37abc8"/>
  <rect x="9" y="31" width="1" height="1" fill="#37abc8"/>
  <rect x="10" y="31" width="1" height="1" fill="#37abc8"/>
  <rect x="12" y="31" width="1" height="1" fill="#37abc8"/>
  <rect x="13" y="31" width="1" height="1" fill="#37abc8"/>
  <rect x="14" y="31" width="1" height="1" fill="#37abc8"/>
  <rect x="15" y="31" width="1" height="1" fill="#37abc8"/>
  <rect x="16" y="31" width="1" height="1" fill="#37abc8"/>
  <rect x="17" y="31" width="1" height="1" fill="#37abc8"/>
  <rect x="20" y="31" width="1" height="1" fill="#37abc8"/>
  <rect x="22" y="31" width="1" height="1" fill="#37abc8"/>
  <rect x="23" y="31" width="1" height="1" fill="#37abc8"/>
  <rect x="24" y="31" width="1" height="1" fill="#37abc8"/>
  <rect x="25" y="31" width="1" height="1" fill="#37abc8"/>
  <rect x="29" y="31" width="1" height="1" fill="#37abc8"/>
  <rect x="31" y="31" width="1" height="1" fill="#37abc8"/>
  <rect x="32" y="31" width="1" height="1" fill="#37abc8"/>
  <rect x="33" y="31" width="1" height="1" fill="#37abc8"/>
  <rect x="34" y="31" width="1" height="1" fill="#37abc8"/>
  <rect x="35" y="31" width="1" height="1" fill="#37abc8"/>
  <rect x="36" y="31" width="1" height="1" fill="#37abc8"/>
  <rect x="38" y="31" width="1" height="1" fill="#37abc8"/>
  <rect x="39" y="31" width="1" height="1" fill="#37abc8"/>
  <rect x="15" y="32" width="1" height="1" fill="#37abc8"/>
  <rect x="17" y="32" width="1" height="1" fill="#37abc8"/>
  <rect x="18" y="32" width="1" height="1" fill="#37abc8"/>
  <rect x="19" y="32" width="1" height="1" fill="#37abc8"/>
  <rect x="20" y="32" width="1" height="1" fill="#37abc8"/>
  <rect x="22" y="32" width="1" height="1" fill="#37abc8"/>
  <rect x="24" y="32" width="1" height="1" fill="#37abc8"/>
  <rect x="31" y="32" width="1" height="1" fill="#37abc8"/>
  <rect x="35" y="32" width="1" height="1" fill="#37abc8"/>
  <rect x="36" y="32" width="1" height="1" fill="#37abc8"/>
  <rect x="15" y="33" width="1" height="1" fill="#37abc8"/>
  <rect x="17" y="33" width="1" height="1" fill="#37abc8"/>
  <rect x="21" y="33" width="1" height="1" fill="#37abc8"/>
  <rect x="24" y="33" width="1" height="1" fill="#37abc8"/>
  <rect x="25" y="33" width="1" height="1" fill="#37abc8"/>
  <rect x="26" y="33" width="1" height="1" fill="#37abc8"/>
  <rect x="28" y="33" width="1" height="1" fill="#37abc8"/>
  <rect x="29" y="33" width="1" height="1" fill="#37abc8"/>
  <rect x="30" y="33" width="1" height="1" fill="#37abc8"/>
  <rect x="31" y="33" width="1" height="1" fill="#37abc8"/>
  <rect x="33" y="33" width="1" height="1" fill="#37abc8"/>
  <rect x="35" y="33" width="1" height="1" fill="#37abc8"/>
  <rect x="37" y="33" width="1" height="1" fill="#37abc8"/>
  <rect x="16" y="34" width="1" height="1" fill="#37abc8"/>
  <rect x="18" y="34" width="1" height="1" fill="#37abc8"/>
  <rect x="20" y="34" width="1" height="1" fill="#37abc8"/>
  <rect x="21" y="34" width="1" height="1" fill="#37abc8"/>
  <rect x="24" y="34" width="1" height="1" fill="#37abc8"/>
  <rect x="25" y="34" width="1" height="1" fill="#37abc8"/>
  <rect x="27" y="34" width="1" height="1" fill="#37abc8"/>
  <rect x="31" y="34" width="1" height="1" fill="#37abc8"/>
  <rect x="35" y="34" width="1" height="1" fill="#37abc8"/>
  <rect x="36" y="34" width="1" height="1" fill="#37abc8"/>
  <rect x="37" y="34" width="1" height="1" fill="#37abc8"/>
  <rect x="38" y="34" width="1" height="1" fill="#37abc8"/>
  <rect x="39" y="34" width="1" height="1" fill="#37abc8"/>
  <rect x="15" y="35" width="1" height="1" fill="#37abc8"/>
  <rect x="16" y="35" width="1" height="1" fill="#37abc8"/>
  <rect x="17" y="35" width="1" height="1" fill="#37abc8"/>
  <rect x="18" y="35" width="1" height="1" fill="#37abc8"/>
  <rect x="20" y="35" width="1" height="1" fill="#37abc8"/>
  <rect x="22" y="35" width="1" height="1" fill="#37abc8"/>
  <rect x="25" y="35" width="1" height="1" fill="#37abc8"/>
  <rect x="26" y="35" width="1" height="1" fill="#37abc8"/>
  <rect x="28" y="35" width="1" height="1" fill="#37abc8"/>
  <rect x="30" y="35" width="1" height="1" fill="#37abc8"/>
  <rect x="31" y="35" width="1" height="1" fill="#37abc8"/>
  <rect x="32" y="35" width="1" height="1" fill="#37abc8"/>
  <rect x="33" y="35" width="1" height="1" fill="#37abc8"/>
  <rect x="34" y="35" width="1" height="1" fill="#37abc8"/>
  <rect x="35" y="35" width="1" height="1" fill="#37abc8"/>
  <rect x="36" y="35" width="1" height="1" fill="#37abc8"/>
  <rect x="38" y="35" width="1" height="1" fill="#37abc8"/>
  <rect x="39" y="35" width="1" height="1" fill="#37abc8"/>
  <rect x="15" y="36" width="1" height="1" fill="#37abc8"/>
  <rect x="16" y="36" width="1" height="1" fill="#37abc8"/>
  <rect x="17" y="36" width="1" height="1" fill="#37abc8"/>
  <rect x="18" y="36" width="1" height="1" fill="#37abc8"/>
  <rect x="23" y="36" width="1" height="1" fill="#37abc8"/>
  <rect x="25" y="36" width="1" height="1" fill="#37abc8"/>
  <rect x="28" y="36" width="1" height="1" fill="#37abc8"/>
  <rect x="34" y="36" width="1" height="1" fill="#37abc8"/>
  <rect x="36" y="36" width="1" height="1" fill="#37abc8"/>
  <rect x="37" y="36" width="1" height="1" fill="#37abc8"/>
  <rect x="38" y="36" width="1" height="1" fill="#37abc8"/>
  <rect x="19" y="37" width="1" height="1" fill="#37abc8"/>
  <rect x="21" y="37" width="1" height="1" fill="#37abc8"/>
  <rect x="22" y="37" width="1" height="1" fill="#37abc8"/>
  <rect x="26" y="37" width="1" height="1" fill="#37abc8"/>
  <rect x="28" y="37" width="1" height="1" fill="#37abc8"/>
  <rect x="29" y="37" width="1" height="1" fill="#37abc8"/>
  <rect x="35" y="37" width="1" height="1" fill="#37abc8"/>
  <rect x="37" y="37" width="1" height="1" fill="#37abc8"/>
  <rect x="38" y="37" width="1" height="1" fill="#37abc8"/>
  <rect x="39" y="37" width="1" height="1" fill="#37abc8"/>
  <rect x="16" y="38" width="1" height="1" fill="#37abc8"/>
  <rect x="17" y="38" width="1" height="1" fill="#37abc8"/>
  <rect x="18" y="38" width="1" height="1" fill="#37abc8"/>
  <rect x="19" y="38" width="1" height="1" fill="#37abc8"/>
  <rect x="21" y="38" width="1" height="1" fill="#37abc8"/>
  <rect x="22" y="38" width="1" height="1" fill="#37abc8"/>
  <rect x="24" y="38" width="1" height="1" fill="#37abc8"/>
  <rect x="25" y="38" width="1" height="1" fill="#37abc8"/>
  <rect x="28" y="38" width="1" height="1" fill="#37abc8"/>
  <rect x="29" y="38" width="1" height="1" fill="#37abc8"/>
  <rect x="32" y="38" width="1" height="1" fill="#37abc8"/>
  <rect x="33" y="38" width="1" height="1" fill="#37abc8"/>
  <rect x="37" y="38" width="1" height="1" fill="#37abc8"/>
  <rect x="38" y="38" width="1" height="1" fill="#37abc8"/>
  <rect x="39" y="38" width="1" height="1" fill="#37abc8"/>
  <rect x="17" y="39" width="1" height="1" fill="#37abc8"/>
  <rect x="18" y="39" width="1" height="1" fill="#37abc8"/>
  <rect x="20" y="39" width="1" height="1" fill="#37abc8"/>
  <rect x="22" y="39" width="1" height="1" fill="#37abc8"/>
  <rect x="24" y="39" width="1" height="1" fill="#37abc8"/>
  <rect x="28" y="39" width="1" height="1" fill="#37abc8"/>
  <rect x="29" y="39" width="1" height="1" fill="#37abc8"/>
  <rect x="31" y="39" width="1" height="1" fill="#37abc8"/>
  <rect x="33" y="39" width="1" height="1" fill="#37abc8"/>
  <rect x="35" y="39" width="1" height="1" fill="#37abc8"/>
  <rect x="36" y="39" width="1" height="1" fill="#37abc8"/>
  <rect x="37" y="39" width="1" height="1" fill="#37abc8"/>
  <rect x="7" y="7" width="7" height="7" rx="1.6" ry="1.6" fill="#37abc8"/>
  <rect x="8" y="8" width="5" height="5" rx="1.2" ry="1.2" fill="#ffffff"/>
  <rect x="9" y="9" width="3" height="3" rx="0.9" ry="0.9" fill="#37abc8"/>
  <rect x="33" y="7" width="7" height="7" rx="1.6" ry="1.6" fill="#37abc8"/>
  <rect x="34" y="8" width="5" height="5" rx="1.2" ry="1.2" fill="#ffffff"/>
  <rect x="35" y="9" width="3" height="3" rx="0.9" ry="0.9" fill="#37abc8"/>
  <rect x="7" y="33" width="7" height="7" rx="1.6" ry="1.6" fill="#37abc8"/>
  <rect x="8" y="34" width="5" height="5" rx="1.2" ry="1.2" fill="#ffffff"/>
  <rect x="9" y="35" width="3" height="3" rx="0.9" ry="0.9" fill="#37abc8"/>
  <rect x="19" y="0" width="1" height="1" fill="#37abc8"/>
  <rect x="20" y="0" width="1" height="1" fill="#37abc8"/>
  <rect x="22" y="0" width="1" height="1" fill="#37abc8"/>
  <rect x="24" y="0" width="1" height="1" fill="#37abc8"/>
  <rect x="27" y="0" width="1" height="1" fill="#37abc8"/>
  <rect x="16" y="1" width="1" height="1" fill="#37abc8"/>
  <rect x="19" y="1" width="1" height="1" fill="#37abc8"/>
  <rect x="25" y="1" width="1" height="1" fill="#37abc8"/>
  <rect x="26" y="1" width="1" height="1" fill="#37abc8"/>
  <rect x="13" y="2" width="1" height="1" fill="#37abc8"/>
  <rect x="17" y="2" width="1" height="1" fill="#37abc8"/>
  <rect x="18" y="2" width="1" height="1" fill="#37abc8"/>
  <rect x="19" y="2" width="1" height="1" fill="#37abc8"/>
  <rect x="20" y="2" width="1" height="1" fill="#37abc8"/>
  <rect x="21" y="2" width="1" height="1" fill="#37abc8"/>
  <rect x="22" y="2" width="1" height="1" fill="#37abc8"/>
  <rect x="26" y="2" width="1" height="1" fill="#37abc8"/>
  <rect x="27" y="2" width="1" height="1" fill="#37abc8"/>
  <rect x="28" y="2" width="1" height="1" fill="#37abc8"/>
  <rect x="29" y="2" width="1" height="1" fill="#37abc8"/>
  <rect x="30" y="2" width="1" height="1" fill="#37abc8"/>
  <rect x="32" y="2" width="1" height="1" fill="#37abc8"/>
  <rect x="33" y="2" width="1" height="1" fill="#37abc8"/>
  <rect x="13" y="3" width="1" height="1" fill="#37abc8"/>
  <rect x="16" y="3" width="1" height="1" fill="#37abc8"/>
  <rect x="17" y="3" width="1" height="1" fill="#37abc8"/>
  <rect x="19" y="3" width="1" height="1" fill="#37abc8"/>
  <rect x="20" y="3" width="1" height="1" fill="#37abc8"/>
  <rect x="22" y="3" width="1" height="1" fill="#37abc8"/>
  <rect x="25" y="3" width="1" height="1" fill="#37abc8"/>
  <rect x="26" y="3" width="1" height="1" fill="#37abc8"/>
  <rect x="27" y="3" width="1" height="1" fill="#37abc8"/>
  <rect x="32" y="3" width="1" height="1" fill="#37abc8"/>
  <rect x="33" y="3" width="1" height="1" fill="#37abc8"/>
  <rect x="34" y="3" width="1" height="1" fill="#37abc8"/>
  <rect x="35" y="3" width="1" height="1" fill="#37abc8"/>
  <rect x="10" y="4" width="1" height="1" fill="#37abc8"/>
  <rect x="12" y="4" width="1" height="1" fill="#37abc8"/>
  <rect x="13" y="4" width="1" height="1" fill="#37abc8"/>
  <rect x="14" y="4" width="1" height="1" fill="#37abc8"/>
  <rect x="16" y="4" width="1" height="1" fill="#37abc8"/>
  <rect x="18" y="4" width="1" height="1" fill="#37abc8"/>
  <rect x="20" y="4" width="1" height="1" fill="#37abc8"/>
  <rect x="21" y="4" width="1" height="1" fill="#37abc8"/>
  <rect x="23" y="4" width="1" height="1" fill="#37abc8"/>
  <rect x="26" y="4" width="1" height="1" fill="#37abc8"/>
  <rect x="27" y="4" width="1" height="1" fill="#37abc8"/>
  <rect x="28" y="4" width="1" height="1" fill="#37abc8"/>
  <rect x="32" y="4" width="1" height="1" fill="#37abc8"/>
  <rect x="33" y="4" width="1" height="1" fill="#37abc8"/>
  <rect x="35" y="4" width="1" height="1" fill="#37abc8"/>
  <rect x="36" y="4" width="1" height="1" fill="#37abc8"/>
  <rect x="8" y="5" width="1" height="1" fill="#37abc8"/>
  <rect x="9" y="5" width="1" height="1" fill="#37abc8"/>
  <rect x="10" y="5" width="1" height="1" fill="#37abc8"/>
  <rect x="11" y="5" width="1" height="1" fill="#37abc8"/>
  <rect x="12" y="5" width="1" height="1" fill="#37abc8"/>
  <rect x="15" y="5" width="1" height="1" fill="#37abc8"/>
  <rect x="16" y="5" width="1" height="1" fill="#37abc8"/>
  <rect x="17" y="5" width="1" height="1" fill="#37abc8"/>
  <rect x="19" y="5" width="1" height="1" fill="#37abc8"/>
  <rect x="21" y="5" width="1" height="1" fill="#37abc8"/>
  <rect x="22" y="5" width="1" height="1" fill="#37abc8"/>
  <rect x="23" y="5" width="1" height="1" fill="#37abc8"/>
  <rect x="24" y="5" width="1" height="1" fill="#37abc8"/>
  <rect x="25" y="5" width="1" height="1" fill="#37abc8"/>
  <rect x="28" y="5" width="1" height="1" fill="#37abc8"/>
  <rect x="29" y="5" width="1" height="1" fill="#37abc8"/>
  <rect x="31" y="5" width="1" height="1" fill="#37abc8"/>
  <rect x="32" y="5" width="1" height="1" fill="#37abc8"/>
  <rect x="34" y="5" width="1" height="1" fill="#37abc8"/>
  <rect x="5" y="8" width="1" height="1" fill="#37abc8"/>
  <rect x="41" y="8" width="1" height="1" fill="#37abc8"/>
  <rect x="5" y="9" width="1" height="1" fill="#37abc8"/>
  <rect x="41" y="9" width="1" height="1" fill="#37abc8"/>
  <rect x="4" y="10" width="1" height="1" fill="#37abc8"/>
  <rect x="41" y="10" width="1" height="1" fill="#37abc8"/>
  <rect x="42" y="10" width="1" height="1" fill="#37abc8"/>
  <rect x="3" y="11" width="1" height="1" fill="#37abc8"/>
  <rect x="41" y="11" width="1" height="1" fill="#37abc8"/>
  <rect x="5" y="12" width="1" height="1" fill="#37abc8"/>
  <rect x="42" y="12" width="1" height="1" fill="#37abc8"/>
  <rect x="43" y="12" width="1" height="1" fill="#37abc8"/>
  <rect x="4" y="13" width="1" height="1" fill="#37abc8"/>
  <rect x="42" y="13" width="1" height="1" fill="#37abc8"/>
  <rect x="43" y="13" width="1" height="1" fill="#37abc8"/>
  <rect x="2" y="14" width="1" height="1" fill="#37abc8"/>
  <rect x="4" y="14" width="1" height="1" fill="#37abc8"/>
  <rect x="42" y="14" width="1" height="1" fill="#37abc8"/>
  <rect x="43" y="14" width="1" height="1" fill="#37abc8"/>
  <rect x="1" y="15" width="1" height="1" fill="#37abc8"/>
  <rect x="4" y="15" width="1" height="1" fill="#37abc8"/>
  <rect x="5" y="15" width="1" height="1" fill="#37abc8"/>
  <rect x="42" y="15" width="1" height="1" fill="#37abc8"/>
  <rect x="44" y="15" width="1" height="1" fill="#37abc8"/>
  <rect x="2" y="16" width="1" height="1" fill="#37abc8"/>
  <rect x="4" y="16" width="1" height="1" fill="#37abc8"/>
  <rect x="5" y="16" width="1" height="1" fill="#37abc8"/>
  <rect x="44" y="16" width="1" height="1" fill="#37abc8"/>
  <rect x="2" y="17" width="1" height="1" fill="#37abc8"/>
  <rect x="3" y="17" width="1" height="1" fill="#37abc8"/>
  <rect x="4" y="17" width="1" height="1" fill="#37abc8"/>
  <rect x="42" y="17" width="1" height="1" fill="#37abc8"/>
  <rect x="45" y="17" width="1" height="1" fill="#37abc8"/>
  <rect x="3" y="18" width="1" height="1" fill="#37abc8"/>
  <rect x="4" y="18" width="1" height="1" fill="#37abc8"/>
  <rect x="43" y="18" width="1" height="1" fill="#37abc8"/>
  <rect x="44" y="18" width="1" height="1" fill="#37abc8"/>
  <rect x="1" y="19" width="1" height="1" fill="#37abc8"/>
  <rect x="2" y="19" width="1" height="1" fill="#37abc8"/>
  <rect x="4" y="19" width="1" height="1" fill="#37abc8"/>
  <rect x="41" y="19" width="1" height="1" fill="#37abc8"/>
  <rect x="42" y="19" width="1" height="1" fill="#37abc8"/>
  <rect x="43" y="19" width="1" height="1" fill="#37abc8"/>
  <rect x="44" y="19" width="1" height="1" fill="#37abc8"/>
  <rect x="45" y="19" width="1" height="1" fill="#37abc8"/>
  <rect x="46" y="19" width="1" height="1" fill="#37abc8"/>
  <rect x="0" y="20" width="1" height="1" fill="#37abc8"/>
  <rect x="2" y="20" width="1" height="1" fill="#37abc8"/>
  <rect x="3" y="20" width="1" height="1" fill="#37abc8"/>
  <rect x="5" y="20" width="1" height="1" fill="#37abc8"/>
  <rect x="43" y="20" width="1" height="1" fill="#37abc8"/>
  <rect x="44" y="20" width="1" height="1" fill="#37abc8"/>
  <rect x="45" y="20" width="1" height="1" fill="#37abc8"/>
  <rect x="0" y="21" width="1" height="1" fill="#37abc8"/>
  <rect x="3" y="21" width="1" height="1" fill="#37abc8"/>
  <rect x="44" y="21" width="1" height="1" fill="#37abc8"/>
  <rect x="45" y="21" width="1" height="1" fill="#37abc8"/>
  <rect x="3" y="22" width="1" height="1" fill="#37abc8"/>
  <rect x="41" y="22" width="1" height="1" fill="#37abc8"/>
  <rect x="42" y="22" width="1" height="1" fill="#37abc8"/>
  <rect x="43" y="22" width="1" height="1" fill="#37abc8"/>
  <rect x="44" y="22" width="1" height="1" fill="#37abc8"/>
  <rect x="45" y="22" width="1" height="1" fill="#37abc8"/>
  <rect x="1" y="23" width="1" height="1" fill="#37abc8"/>
  <rect x="3" y="23" width="1" height="1" fill="#37abc8"/>
  <rect x="5" y="23" width="1" height="1" fill="#37abc8"/>
  <rect x="42" y="23" width="1" height="1" fill="#37abc8"/>
  <rect x="0" y="24" width="1" height="1" fill="#37abc8"/>
  <rect x="2" y="24" width="1" height="1" fill="#37abc8"/>
  <rect x="44" y="24" width="1" height="1" fill="#37abc8"/>
  <rect x="45" y="24" width="1" height="1" fill="#37abc8"/>
  <rect x="46" y="24" width="1" height="1" fill="#37abc8"/>
  <rect x="1" y="25" width="1" height="1" fill="#37abc8"/>
  <rect x="3" y="25" width="1" height="1" fill="#37abc8"/>
  <rect x="4" y="25" width="1" height="1" fill="#37abc8"/>
  <rect x="5" y="25" width="1" height="1" fill="#37abc8"/>
  <rect x="41" y="25" width="1" height="1" fill="#37abc8"/>
  <rect x="42" y="25" width="1" height="1" fill="#37abc8"/>
  <rect x="43" y="25" width="1" height="1" fill="#37abc8"/>
  <rect x="46" y="25" width="1" height="1" fill="#37abc8"/>
  <rect x="0" y="26" width="1" height="1" fill="#37abc8"/>
  <rect x="1" y="26" width="1" height="1" fill="#37abc8"/>
  <rect x="2" y="26" width="1" height="1" fill="#37abc8"/>
  <rect x="3" y="26" width="1" height="1" fill="#37abc8"/>
  <rect x="5" y="26" width="1" height="1" fill="#37abc8"/>
  <rect x="41" y="26" width="1" height="1" fill="#37abc8"/>
  <rect x="45" y="26" width="1" height="1" fill="#37abc8"/>
  <rect x="46" y="26" width="1" height="1" fill="#37abc8"/>
  <rect x="1" y="27" width="1" height="1" fill="#37abc8"/>
  <rect x="3" y="27" width="1" height="1" fill="#37abc8"/>
  <rect x="4" y="27" width="1" height="1" fill="#37abc8"/>
  <rect x="41" y="27" width="1" height="1" fill="#37abc8"/>
  <rect x="43" y="27" width="1" height="1" fill="#37abc8"/>
  <rect x="5" y="28" width="1" height="1" fill="#37abc8"/>
  <rect x="41" y="28" width="1" height="1" fill="#37abc8"/>
  <rect x="44" y="28" width="1" height="1" fill="#37abc8"/>
  <rect x="5" y="29" width="1" height="1" fill="#37abc8"/>
  <rect x="41" y="29" width="1" height="1" fill="#37abc8"/>
  <rect x="42" y="29" width="1" height="1" fill="#37abc8"/>
  <rect x="2" y="30" width="1" height="1" fill="#37abc8"/>
  <rect x="3" y="30" width="1" height="1" fill="#37abc8"/>
  <rect x="4" y="30" width="1" height="1" fill="#37abc8"/>
  <rect x="5" y="30" width="1" height="1" fill="#37abc8"/>
  <rect x="41" y="30" width="1" height="1" fill="#37abc8"/>
  <rect x="42" y="30" width="1" height="1" fill="#37abc8"/>
  <rect x="44" y="30" width="1" height="1" fill="#37abc8"/>
  <rect x="45" y="30" width="1" height="1" fill="#37abc8"/>
  <rect x="1" y="31" width="1" height="1" fill="#37abc8"/>
  <rect x="4" y="31" width="1" height="1" fill="#37abc8"/>
  <rect x="5" y="31" width="1" height="1" fill="#37abc8"/>
  <rect x="41" y="31" width="1" height="1" fill="#37abc8"/>
  <rect x="42" y="31" width="1" height="1" fill="#37abc8"/>
  <rect x="2" y="32" width="1" height="1" fill="#37abc8"/>
  <rect x="3" y="32" width="1" height="1" fill="#37abc8"/>
  <rect x="5" y="32" width="1" height="1" fill="#37abc8"/>
  <rect x="42" y="32" width="1" height="1" fill="#37abc8"/>
  <rect x="43" y="32" width="1" height="1" fill="#37abc8"/>
  <rect x="44" y="32" width="1" height="1" fill="#37abc8"/>
  <rect x="2" y="33" width="1" height="1" fill="#37abc8"/>
  <rect x="4" y="33" width="1" height="1" fill="#37abc8"/>
  <rect x="43" y="33" width="1" height="1" fill="#37abc8"/>
  <rect x="3" y="34" width="1" height="1" fill="#37abc8"/>
  <rect x="5" y="34" width="1" height="1" fill="#37abc8"/>
  <rect x="42" y="34" width="1" height="1" fill="#37abc8"/>
  <rect x="3" y="35" width="1" height="1" fill="#37abc8"/>
  <rect x="5" y="35" width="1" height="1" fill="#37abc8"/>
  <rect x="43" y="35" width="1" height="1" fill="#37abc8"/>
  <rect x="4" y="36" width="1" height="1" fill="#37abc8"/>
  <rect x="8" y="41" width="1" height="1" fill="#37abc8"/>
  <rect x="10" y="41" width="1" height="1" fill="#37abc8"/>
  <rect x="12" y="41" width="1" height="1" fill="#37abc8"/>
  <rect x="13" y="41" width="1" height="1" fill="#37abc8"/>
  <rect x="14" y="41" width="1" height="1" fill="#37abc8"/>
  <rect x="15" y="41" width="1" height="1" fill="#37abc8"/>
  <rect x="18" y="41" width="1" height="1" fill="#37abc8"/>
  <rect x="21" y="41" width="1" height="1" fill="#37abc8"/>
  <rect x="22" y="41" width="1" height="1" fill="#37abc8"/>
  <rect x="23" y="41" width="1" height="1" fill="#37abc8"/>
  <rect x="24" y="41" width="1" height="1" fill="#37abc8"/>
  <rect x="25" y="41" width="1" height="1" fill="#37abc8"/>
  <rect x="27" y="41" width="1" height="1" fill="#37abc8"/>
  <rect x="28" y="41" width="1" height="1" fill="#37abc8"/>
  <rect x="29" y="41" width="1" height="1" fill="#37abc8"/>
  <rect x="32" y="41" width="1" height="1" fill="#37abc8"/>
  <rect x="33" y="41" width="1" height="1" fill="#37abc8"/>
  <rect x="36" y="41" width="1" height="1" fill="#37abc8"/>
  <rect x="38" y="41" width="1" height="1" fill="#37abc8"/>
  <rect x="10" y="42" width="1" height="1" fill="#37abc8"/>
  <rect x="12" y="42" width="1" height="1" fill="#37abc8"/>
  <rect x="13" y="42" width="1" height="1" fill="#37abc8"/>
  <rect x="14" y="42" width="1" height="1" fill="#37abc8"/>
  <rect x="15" y="42" width="1" height="1" fill="#37abc8"/>
  <rect x="18" y="42" width="1" height="1" fill="#37abc8"/>
  <rect x="21" y="42" width="1" height="1" fill="#37abc8"/>
  <rect x="23" y="42" width="1" height="1" fill="#37abc8"/>
  <rect x="26" y="42" width="1" height="1" fill="#37abc8"/>
  <rect x="29" y="42" width="1" height="1" fill="#37abc8"/>
  <rect x="32" y="42" width="1" height="1" fill="#37abc8"/>
  <rect x="33" y="42" width="1" height="1" fill="#37abc8"/>
  <rect x="35" y="42" width="1" height="1" fill="#37abc8"/>
  <rect x="36" y="42" width="1" height="1" fill="#37abc8"/>
  <rect x="11" y="43" width="1" height="1" fill="#37abc8"/>
  <rect x="14" y="43" width="1" height="1" fill="#37abc8"/>
  <rect x="16" y="43" width="1" height="1" fill="#37abc8"/>
  <rect x="17" y="43" width="1" height="1" fill="#37abc8"/>
  <rect x="19" y="43" width="1" height="1" fill="#37abc8"/>
  <rect x="20" y="43" width="1" height="1" fill="#37abc8"/>
  <rect x="21" y="43" width="1" height="1" fill="#37abc8"/>
  <rect x="25" y="43" width="1" height="1" fill="#37abc8"/>
  <rect x="29" y="43" width="1" height="1" fill="#37abc8"/>
  <rect x="30" y="43" width="1" height="1" fill="#37abc8"/>
  <rect x="31" y="43" width="1" height="1" fill="#37abc8"/>
  <rect x="32" y="43" width="1" height="1" fill="#37abc8"/>
  <rect x="34" y="43" width="1" height="1" fill="#37abc8"/>
  <rect x="35" y="43" width="1" height="1" fill="#37abc8"/>
  <rect x="16" y="44" width="1" height="1" fill="#37abc8"/>
  <rect x="18" y="44" width="1" height="1" fill="#37abc8"/>
  <rect x="21" y="44" width="1" height="1" fill="#37abc8"/>
  <rect x="23" y="44" width="1" height="1" fill="#37abc8"/>
  <rect x="24" y="44" width="1" height="1" fill="#37abc8"/>
  <rect x="25" y="44" width="1" height="1" fill="#37abc8"/>
  <rect x="31" y="44" width="1" height="1" fill="#37abc8"/>
  <rect x="16" y="45" width="1" height="1" fill="#37abc8"/>
  <rect x="17" y="45" width="1" height="1" fill="#37abc8"/>
  <rect x="19" y="45" width="1" height="1" fill="#37abc8"/>
  <rect x="21" y="45" width="1" height="1" fill="#37abc8"/>
  <rect x="22" y="45" width="1" height="1" fill="#37abc8"/>
  <rect x="25" y="45" width="1" height="1" fill="#37abc8"/>
  <rect x="28" y="45" width="1" height="1" fill="#37abc8"/>
  <rect x="30" y="45" width="1" height="1" fill="#37abc8"/>
  <rect x="31" y="45" width="1" height="1" fill="#37abc8"/>
  <rect x="20" y="46" width="1" height="1" fill="#37abc8"/>
  <rect x="22" y="46" width="1" height="1" fill="#37abc8"/>
  <rect x="23" y="46" width="1" height="1" fill="#37abc8"/>
  <rect x="26" y="46" width="1" height="1" fill="#37abc8"/>
  <rect x="27" y="46" width="1" height="1" fill="#37abc8"/>
</g>
</svg>